<svg height="512pt" viewBox="0 0 512 512" width="512pt" xmlns="http://www.w3.org/2000/svg">
<path style="fill:#86C231" d="m438.328125 77.078125c-11.613281 5.523437-22.714844 12.082031-32.476563 20.847656-28.503906 25.589844-44.851562 62.210938-44.851562 100.503907v26.570312c0 57.890625-47.109375 105-105 105s-105-47.109375-105-105v-26.570312c0-41.558594-19.644531-81.519532-52.542969-106.90625-7.660156-5.910157-15.882812-10.75-24.429687-14.832032-45.101563 46.019532-74.027344 108.933594-74.027344 178.308594 0 103.324219 62.878906 194.300781 151.429688 234.320312 4.066406-56.539062 51.300781-97.320312 104.570312-97.320312 55.929688 0 100.851562 43.5625 104.816406 97.203125 88.421875-40.074219 151.183594-130.972656 151.183594-234.203125 0-69.1875-28.789062-131.933594-73.671875-177.921875zm0 0"/>
<path style="fill:#86C231" d="m256 300c41.351562 0 75-33.648438 75-75v-26.570312c0-46.789063 19.980469-91.554688 54.8125-122.828126 8.753906-7.855468 18.207031-14.636718 28.199219-20.367187-43.492188-34.472656-98.332031-55.234375-158.011719-55.234375-59.722656 0-114.59375 20.785156-158.097656 55.300781 6.492187 3.730469 12.832031 7.800781 18.878906 12.464844 40.210938 31.023437 64.21875 79.875 64.21875 130.664063v26.570312c0 41.351562 33.648438 75 75 75zm0 0"/>
<path style="fill:#86C231" d="m256 422c-40.4375 0-76.867188 33.082031-74.554688 78.824219 23.597657 7.230469 48.621094 11.175781 74.554688 11.175781 25.960938 0 51.011719-3.949219 74.628906-11.191406 2.285156-45.210938-33.605468-78.808594-74.628906-78.808594zm0 0"/></svg>